<?xml version="1.0" encoding="utf-8"?>
<!-- Generator: Adobe Illustrator 24.2.1, SVG Export Plug-In . SVG Version: 6.00 Build 0)  -->
<svg version="1.1" id="Layer_1" xmlns="http://www.w3.org/2000/svg" xmlns:xlink="http://www.w3.org/1999/xlink" x="0px" y="0px"
	 viewBox="0 0 376.4 28.5" style="enable-background:new 0 0 376.4 28.5;" xml:space="preserve">
<style type="text/css">
	.st0{fill:none;}
	.st1{fill:#FFFFFF;}
</style>
<g>
	<polygon class="st0" points="237.3,21.3 236.5,26.1 235.9,28.5 238.5,28.5 237.9,26.1 	"/>
	<path class="st0" d="M356.7,17.3c-3.4,0-5.6,2.3-6.4,6.7h12.9C362.4,19.6,360.2,17.3,356.7,17.3z"/>
	<path class="st0" d="M186.3,18.6c-3.4,0-5.6,2.3-6.4,6.7h12.9C192,20.9,189.8,18.6,186.3,18.6z"/>
	<polygon class="st1" points="43.5,0 30.4,0 30.4,18.6 13.2,18.6 13.2,0 0,0 0,28.5 43.5,28.5 	"/>
	<rect x="47.8" y="10" class="st1" width="12.5" height="18.5"/>
	<rect x="71.4" y="10" class="st1" width="12.5" height="18.5"/>
	<path class="st1" d="M100.1,21.1c0-1.7,1.6-2.9,3.9-2.9c3.4,0,5.4,1.5,6,4.8h12.4c-1.1-9.8-8.4-14.3-18-14.3
		c-10.7,0-16.1,6.3-16.1,13c0,3,0.9,5.2,2.3,6.8h28.9C112.7,24.1,100.1,26,100.1,21.1z"/>
	<polygon class="st1" points="139.9,19.5 147.7,19.5 147.7,10 139.9,10 139.9,0 127.4,0 127.4,10 127.4,19.5 127.4,19.5 127.4,28.5 
		139.9,28.5 	"/>
	<rect x="151.2" y="0" class="st1" width="12.5" height="28.5"/>
	<path class="st1" d="M186.4,8.8c-11.4,0-19,7.2-19.5,19.7h38.8C205.4,16.2,198.1,8.8,186.4,8.8z M179.9,25.3c0.8-4.4,3-6.7,6.4-6.7
		c3.5,0,5.7,2.3,6.5,6.7H179.9z"/>
	<polygon class="st1" points="269.6,9.5 256.9,9.5 253.6,28 264.8,28 	"/>
	<polygon class="st1" points="218.6,10 205.4,10 210.2,28.5 221.9,28.5 	"/>
	<polygon class="st1" points="237.1,25.5 237.9,20.7 238.5,25.5 239.1,28 248.9,28 244.4,9.5 231.8,9.5 227.2,28 236.5,28 	"/>
	<path class="st1" d="M305.1,24.4c0-9-6-15.7-17.4-15.7c-10.1,0-17.2,5.5-18.4,14.3H282c0.4-2.5,2.1-4.2,5.3-4.2
		c3.5,0,5.3,1.8,5.3,5.5v0.9c-5.6,0-10.2,0.5-15.2,2.2c-1,0.3-1.9,0.7-2.8,1.1h30.5V24.4z"/>
	<path class="st1" d="M331,20.1c1.8,0,3.1,0.1,4.5,0.4V10c-0.7-0.9-2.2-1.3-3.9-1.3c-3.8,0-7.4,2-9.8,6.6V10h-12.5v18.5h12.5
		C322.1,23.3,325,20.1,331,20.1z"/>
	<path class="st1" d="M376.2,28.2c0-12.9-7.4-20.7-19.4-20.7c-11.7,0-19.5,7.6-19.5,20.8c0,0.1,0,0.2,0,0.2h38.9V28.2z M350.3,24
		c0.8-4.4,3-6.7,6.4-6.7c3.5,0,5.7,2.3,6.5,6.7H350.3z"/>
</g>
</svg>
