<?xml version="1.0" encoding="utf-8"?>
<!-- Generator: Adobe Illustrator 24.2.1, SVG Export Plug-In . SVG Version: 6.00 Build 0)  -->
<svg version="1.1" id="Layer_1" xmlns="http://www.w3.org/2000/svg" xmlns:xlink="http://www.w3.org/1999/xlink" x="0px" y="0px"
	 viewBox="0 0 376.4 50.3" style="enable-background:new 0 0 376.4 50.3;" xml:space="preserve">
<style type="text/css">
	.st0{fill:#FFFFFF;}
</style>
<g>
	<path class="st0" d="M0,0h13.2v18.6h17.2V0h13.1v49H30.4V29.3H13.2V49H0V0z"/>
	<path class="st0" d="M71.4,10h12.5v39H71.4v-5.1c-2.4,4.4-6.3,6.4-10.8,6.4c-7.2,0-12.8-4.5-12.8-14.3V10h12.5v23.4
		c0,4.7,1.7,6.8,5.1,6.8c3.6,0,6-3.2,6-8V10z"/>
	<path class="st0" d="M123.8,36.9c0,7.8-7.3,13.4-17.7,13.4c-10,0-17.4-4.4-18.7-14.1h12.5c0.4,3,3,4.7,6.6,4.7
		c3.2,0,4.9-1.2,4.9-3.2c0-6.6-23.1-0.5-23.1-16c0-6.7,5.4-13,16.1-13c9.6,0,16.9,4.5,18,14.3H110c-0.6-3.3-2.6-4.8-6-4.8
		c-2.3,0-3.9,1.2-3.9,2.9C100.1,27.8,123.8,21.7,123.8,36.9z"/>
	<path class="st0" d="M127.4,19.5V10V0h12.5v10h7.8v9.5h-7.8V34c0,3.5,0.9,5.5,5.4,5.5h2.3V49c-1.4,0.6-4,1.2-7.3,1.2
		c-8.6,0-12.9-5.1-12.9-14.4L127.4,19.5L127.4,19.5z"/>
	<path class="st0" d="M151.2,0h12.5v49h-12.5V0z"/>
	<path class="st0" d="M186.8,50.3c-12.2,0-19.9-7.9-19.9-20.7c0-13.2,7.8-20.8,19.5-20.8c12,0,19.4,7.8,19.4,20.7v2.7h-26.1
		c0.6,5.4,3,8.3,7.1,8.3c3.2,0,5.1-1.3,6.2-4.2h13.1C204,45.1,196.6,50.3,186.8,50.3z M179.9,25.3h12.9c-0.8-4.4-3-6.7-6.5-6.7
		C182.9,18.6,180.7,20.9,179.9,25.3z"/>
	<path class="st0" d="M237.9,26.1l-0.6-4.8l-0.8,4.8L230.9,49h-15.5l-10-39h13.2l4.4,24.4l1,5.6l1.2-5.5l6-24.4h12.6l6,24.4l1.2,5.4
		l0.9-5.4l4.4-24.4H269l-10.1,39h-15.5L237.9,26.1z"/>
	<path class="st0" d="M269.3,23c1.2-8.8,8.3-14.3,18.4-14.3c11.4,0,17.4,6.7,17.4,15.7v14.8c0,5.2,0.5,7.8,1,9.7h-12.8
		c-0.4-1.2-0.5-2.7-0.6-4.4c-3,4-7.4,5.7-12,5.7c-7.1,0-12.7-3.8-12.7-11.3c0-5.3,3-9.4,9.4-11.5c5-1.7,9.6-2.2,15.2-2.2v-0.9
		c0-3.7-1.8-5.5-5.3-5.5c-3.2,0-4.9,1.7-5.3,4.2H269.3z M284.9,41.9c4.1,0,7.6-3.5,7.6-8.4V32c-9.6,0.3-12.1,2.8-12.1,6
		C280.4,40.3,282,41.9,284.9,41.9z"/>
	<path class="st0" d="M309.3,10h12.5v5.3c2.4-4.6,6-6.6,9.8-6.6c1.7,0,3.2,0.4,3.9,1.3v10.5c-1.4-0.3-2.7-0.4-4.5-0.4
		c-6.3,0-9.2,3.5-9.2,9.3V49h-12.5L309.3,10L309.3,10z"/>
	<path class="st0" d="M357.2,49c-12.2,0-19.9-7.9-19.9-20.7c0-13.2,7.8-20.8,19.5-20.8c12,0,19.4,7.8,19.4,20.7v2.7h-26.1
		c0.6,5.4,3,8.3,7.1,8.3c3.2,0,5.1-1.3,6.2-4.2h13.1C374.4,43.8,367,49,357.2,49z M350.3,24h12.9c-0.8-4.4-3-6.7-6.5-6.7
		C353.3,17.3,351.1,19.6,350.3,24z"/>
</g>
</svg>
