<?xml version="1.0" encoding="utf-8"?>
<!-- Generator: Adobe Illustrator 24.2.1, SVG Export Plug-In . SVG Version: 6.00 Build 0)  -->
<svg version="1.1" id="Layer_2_1_" xmlns="http://www.w3.org/2000/svg" xmlns:xlink="http://www.w3.org/1999/xlink" x="0px" y="0px"
	 viewBox="0 0 496.4 108.5" style="enable-background:new 0 0 496.4 108.5;" xml:space="preserve">
<style type="text/css">
	.st0{fill:#FFFFFF;}
	.st1{clip-path:url(#SVGID_4_);}
	.st2{fill:none;}
	.st3{display:none;}
	.st4{display:inline;fill:none;stroke:#000000;stroke-miterlimit:10;}
</style>
<g>
	<g>
		<path d="M131.5,21.2h11.1v21.6h22.5V21.2h11v52.4h-11V51.9h-22.5v21.6h-11.1V21.2L131.5,21.2z"/>
		<path d="M206.6,34.3h10.9v39.3H207v-7.1h-0.4c-1.8,4.6-6,7.6-11.9,7.6c-7.9,0-13.3-5.6-13.3-14.8v-25h10.9v23.1
			c0,4.6,2.7,7.5,6.8,7.5c3.9,0,7.5-2.8,7.5-8V34.3L206.6,34.3z"/>
		<path d="M245.3,46.1c-0.5-2.5-2.8-4.6-6.6-4.6c-3.4,0-6,1.5-6,3.9c0,1.9,1.3,3.1,5,3.9l7.1,1.4c7.6,1.6,11.3,5,11.4,10.6
			c0,7.7-7.3,12.9-17.5,12.9c-10.4,0-16.8-4.6-17.8-12.1l10.7-0.6c0.7,3.2,3.2,4.9,7.1,4.9c3.8,0,6.3-1.7,6.4-4
			c-0.1-2-1.6-3.2-5-3.9l-6.8-1.4c-7.7-1.5-11.4-5.3-11.4-11.2c0-7.6,6.6-12.2,16.6-12.2c9.9,0,15.8,4.5,16.7,11.7L245.3,46.1z"/>
		<path d="M280.3,42.5h-7.4v19c0,3,1.5,3.8,3.7,3.8c1,0,2.2-0.3,2.7-0.4L281,73c-1.1,0.4-3.1,0.9-5.9,1c-7.9,0.3-13.1-3.5-13.1-11.2
			V42.5h-5.4v-8.2h5.4v-9.4h10.9v9.4h7.4V42.5L280.3,42.5z"/>
		<path d="M295.5,73.6h-10.9V21.2h10.9V73.6z"/>
		<path d="M299,54.1c0-12.1,7.5-20.3,19.1-20.3c10.4,0,18.5,6.6,18.5,19.9v3h-26.8l0,0c0,5.9,3.5,9.5,8.9,9.5c3.6,0,6.4-1.6,7.5-4.6
			l10.1,0.7c-1.5,7.3-8.1,12-17.8,12C306.4,74.3,299,66.6,299,54.1z M326.3,50c0-4.7-3.3-8.1-8-8.1c-4.8,0-8.2,3.6-8.5,8.1H326.3z"
			/>
		<path d="M336.8,34.3h11l6.1,26.4h0.4l6.3-26.4h10.8l6.4,26.2h0.3l6-26.2h11l-10.7,39.3h-11.5l-6.8-24.7h-0.5l-6.8,24.7h-11.4
			L336.8,34.3z"/>
		<path d="M395.5,62.6c0-8.8,7-11.4,14.8-12.1c6.8-0.7,9.5-1,9.5-3.5v-0.2c0-3.2-2.1-5.1-5.8-5.1c-3.9,0-6.2,1.9-7,4.5l-10.1-0.8
			c1.5-7.2,7.7-11.7,17.1-11.7c8.7,0,16.7,3.9,16.7,13.3v26.5h-10.3v-5.4h-0.3c-1.9,3.7-5.7,6.2-11.5,6.2
			C401,74.3,395.5,70.4,395.5,62.6z M419.8,59.5v-4.2c-1.3,0.9-5.2,1.4-7.6,1.8c-3.8,0.5-6.4,2-6.4,5.1c0,3,2.4,4.6,5.8,4.6
			C416.4,66.8,419.8,63.6,419.8,59.5z"/>
		<path d="M435.5,34.3h10.6v6.9h0.4c1.4-4.9,5-7.4,9.4-7.4c1.1,0,2.5,0.2,3.4,0.4v9.7c-1-0.3-3.1-0.6-4.6-0.6
			c-4.8,0-8.3,3.3-8.3,8.2v22.2h-10.9V34.3L435.5,34.3z"/>
		<path d="M457.9,54.1c0-12.1,7.5-20.3,19.1-20.3c10.4,0,18.5,6.6,18.5,19.9v3h-26.8l0,0c0,5.9,3.5,9.5,8.9,9.5
			c3.6,0,6.4-1.6,7.5-4.6l10.1,0.7c-1.5,7.3-8.1,12-17.8,12C465.3,74.3,457.9,66.6,457.9,54.1z M485.2,50c0-4.7-3.3-8.1-8-8.1
			c-4.8,0-8.2,3.6-8.5,8.1H485.2z"/>
	</g>
	<g>
		<g>
			<circle id="SVGID_1_" class="st0" cx="54.5" cy="54.1" r="53.1"/>
		</g>
		<g>
			<g>
				<g>
					<defs>
						<circle id="SVGID_3_" cx="54.5" cy="54.1" r="53.1"/>
					</defs>
					<clipPath id="SVGID_4_">
						<use xlink:href="#SVGID_3_"  style="overflow:visible;"/>
					</clipPath>
					<g class="st1">
						<path class="st2" d="M77.8,35.5c0.2,0,0.6-0.1,0.6-0.3s-0.4-0.4-0.6-0.3c0,0-0.5,0-0.5,0.3C77.4,35.5,77.6,35.5,77.8,35.5z"/>
						<path class="st2" d="M69.6,46.6c0.2,0.9,0.4,1.7,0.8,3.3c0.2,0.8,0.4,1.5,0.5,1.9c0.2,0.9,0.7,1.4,1.2,1.4
							c0.4,0,0.6-0.3,0.7-0.4c0.4-0.5,0.5-1.1,0.5-1.6c0.1-1.3,0.1-2.3-0.1-4.4c0-0.4-0.1-0.9-0.5-1.4c-0.2-0.3-0.5-0.4-0.6-0.5l0,0
							c-1.4-0.1-2.4-0.3-3.2-0.7C69.1,44.7,69.3,45.5,69.6,46.6z"/>
						<path class="st2" d="M48.8,34.3c-0.3-0.1-0.9,0.2-0.9,0.4s0.6,0.4,0.9,0.4s0.6,0,0.6-0.4S48.8,34.3,48.8,34.3z"/>
						<path d="M47.7,62.5c0.6,0.5,1.9,1.6,4.3,2c-2.4-2-4.7-3.9-7.1-5.9c0.3,0.6,0.8,1.5,1.5,2.4C46.5,61.3,47,61.9,47.7,62.5z"/>
						<path d="M78.2,83.7c-0.6-0.5-2.6-2-5.1-4.4c-1.5-1.4-2.7-2.7-3.4-3.5c1.3,0.4,4.5,1.1,7.7-0.3c0.7-0.3,1.6-0.7,2.5-1.6
							c1.6-1.7,1.9-3.8,2.3-7.4c0.4-3.8-0.1-3.8,0.5-6c0.5-1.8,1.1-2.5,1.3-4.4c0.1-0.9,0.1-2.1-0.4-3.8c-1.1-4.3-3.1-5.7-4.6-9.4
							c-0.5-1.1-0.7-2.2-1-3.8c0,0.3-0.1,0.6-0.1,0.8c-0.1,0.7-0.7,2.8-1.2,3.4s-1.8,1.6-4.2,1.5c-0.1,0-0.1,0-0.2,0l0,0
							c0.2,0.1,0.4,0.3,0.6,0.5c0.4,0.5,0.4,1,0.5,1.4c0,2,0,3,0,4.3c0,0.5-0.1,1.1-0.5,1.6c-0.1,0.1-0.4,0.4-0.7,0.4
							c-0.5,0-1-0.5-1.2-1.4c-0.1-0.4-0.3-1.1-0.5-1.9c-0.4-1.6-0.6-2.4-0.8-3.3c-0.3-1.1-0.4-1.9-0.6-2.5c-0.5-0.3-1-0.7-1.4-1.2
							c-0.7-1-1.4-1.9-1.9-3.6c0,0.2,0.1,0.7,1.1,4.6c0.4,1.3,0.6,2.3,0.1,3.2c-0.3,0.5-0.7,0.7-1.3,1.1c-1.7,0.9-3.3,1-4.3,1
							c-1.1,0-1.8,0-2.1-0.4c-0.5-0.6,0-1.8,0.1-2c0.3-0.7,0.7-1,0.7-1.1c-0.1-0.1-0.8,0.3-1.5,0.9c-0.5,0.5-0.9,1-1,1.2
							c-1.5,2.3-2.1,2.7-2.1,2.7c-0.4,0.5-0.7,0.9-0.6,1.2c0.1,0.3,0.6,0.3,0.6,0.3c0.5,0,0.8-0.4,1.1-0.7c0.4-0.5,1-1.3,1.6-2.8
							c0,0.4,0.2,1.1,0.8,1.5c0.2,0.2,0.4,0.2,0.8,0.3c1.2,0.3,1.7,0,2.5,0.3c0.2,0.1,0.5,0.2,0.9,0.5c0.1,0,1-0.5,1.8,0
							c0.2,0.1,0.5,0.3,0.7,0.7c0.5,1.4,0.5,3.3,0.4,3.9c-0.9,0.5-1.6,0.5-2,0.4c-0.9-0.2-1.1-0.7-1.8-0.7s-0.7,0.4-1.7,0.6
							c-1,0.3-1.8,0.2-2.4,0.2c-1.1-0.1-1.3-0.4-2.2-0.3c-0.9,0-1.3,0.3-1.6,0.4c-0.4,0.2-0.6,0.4-0.7,0.6c0.7-0.2,1.7-0.4,2.8-0.3
							c0.6,0.1,0.7,0.2,1.3,0.2c1.3,0.2,1.5-0.1,2.9-0.1c0.5,0,1.2,0.1,2.5,0.2c0.9,0.1,1.2,0.3,1.9,0.2c0.7-0.1,1.2-0.4,1.6-0.6
							c0.2,0.5,0.2,1.3-0.2,1.8c-0.3,0.4-0.8,0.5-1.5,0.8c-1.2,0.5-1.8,0.7-2.1,1.2c-0.2,0.3-0.4,0.8-0.2,1.9c0.5,0,2-0.1,3.2,0.9
							c0.3,0.2,0.7,0.6,1,1.2c0.6,1.3-0.1,2.9-0.7,3.7c-1.4,1.9-4.3,2.2-6.3,1.9c-2.4-0.4-2.4-1.6-5.8-2.4c-0.2,0-1.9-0.4-3.8,0.2
							c-0.8,0.2-1.2,0.5-1.3,0.9c-0.2,0.6,0.1,1.3,0.2,1.5c0.5,0.8,1.1,1.1,1.9,1.6c1.9,1.3,2.2,1.8,2.3,2.3c0,0.1,0.3,0.9-0.1,1.2
							c-0.5,0.4-1.8-0.4-2.9-1.1c-1.5-1-4.4-3-8.7-7.2c2.6,2.9,5,5.1,6.8,6.6c3.4,2.9,5.6,4.1,7.2,4.9c5,2.4,7,1.6,7.7,1.3
							c1-0.5,1.7-1.3,1.7-1.3c0.9-1.1,1.2-2.3,1.3-2.8c0.2,0.9,0.5,2.4,0.1,4.4c-0.5,2.5-2,4.2-2.6,4.8c1.1,0,5.8,0,9.4,3.6
							c0.6,0.6,2,2.1,2.8,4.5c0.9,3,0.2,5.5-0.2,6.5c0.7,0.8,1.5,1.6,2.2,2.4c1.8-0.8,3.7-1.9,5.8-3.2c0.4-0.2,1.8-1.1,3.5-2.5
							c0.7-0.5,1.3-1.1,1.8-1.4C86,91,82.3,87.4,78.2,83.7z"/>
						<path d="M69.8,33.2c0.7,0,0.9-0.2,2.5-0.2s2.4,0.2,3.9,0.5c0.3,0.1,0.5,0.1,0.8,0.2c-0.4-3.4-0.4-5.2-1.4-8.1
							c-0.8-2.1-1.7-3.5-2.2-4.4c-4.4-7.1-11.6-10-12.3-10.3c-2.5-1-10.8-3.8-19.2,0.2C40,12,34.5,14.6,32.1,20
							c-1,2.2-1.3,4.6-3.6,8c-0.9,1.3-1.5,2-2.5,3.7c-0.9,1.7-1.8,3.2-2.2,5.4c-0.5,2.3-0.1,3.3-1.1,4.5c-0.6,0.7-1,0.7-2,1.7
							c-1.1,1.1-1.6,2.2-1.9,2.7c-0.5,0.9-0.9,2.5-1.6,5.4c-0.3,1.3-0.5,2.2-1.3,3c-0.6,0.6-1.2,0.9-1.5,1c-2.3,1.1-4.4,5.3-3.8,9.3
							c0.1,0.8,0.6,3.4,2.9,5.3c1.6,1.4,3.4,1.7,4.2,1.8c-1.6,0.9-3.4,1.9-5.3,3.1c-2,1.3-3.8,2.7-5.3,3.9c1,1.8,2.5,4.4,4.6,7.3
							c8.4,11.1,19.2,15.8,22.8,17.3c3.3,1.3,14.8,5.5,29.1,3c3.6-0.6,6.7-1.6,8.7-2.3c-1.6-4.5-3.6-7.8-5.1-9.8
							c-1.6-2.1-2.9-3.8-5.3-5.3c-0.9-0.5-2.6-1.5-4.9-2.2c-1.6-0.5-2.7-0.7-4.4-1.5c-0.8-0.4-1.5-0.8-2.5-1.5
							c-0.8-0.5-3.9-2.8-6.6-5.7c-5-5.5-7.5-12.6-8-14.2c0.5-0.7,1.1-1.6,1.2-2.7c0.1-0.8-0.2-1.2-0.2-2.2c0-1.4,0-2.4,0.6-2.9
							c0.3-0.2,0.9-0.5,1-0.3c0.8,2.7,1.6,4.5,2.5,6c-0.5-1.3-1-3.2-1.2-5.4c-0.1-1.2,0-2.3,0.1-3.3c-0.9,1.4-2.3,2-3.4,1.6
							c-1.1-0.4-1.4-1.6-1.5-2.1c-0.5-1.8,0.4-3.3,0.6-3.6c1.1,0.7,2.3,0.6,2.5,0.1c0.2-0.2,0-0.7-0.3-1.4s-0.4-0.8-0.5-1.3
							c-0.1-0.6,0-1.1,0.2-1.5c0.7-2.1,3.1-6.5,3.9-9.3c0.5-1.7,0.6-3.1,0.6-4.3c0.1-2.5-0.2-3.8-1.5-8.7c-1-3.8-0.8-5.3-0.2-6.7
							c0.2-0.5,0.7-1.3,1.9-2.3c4.7-3.6,11.5-3.2,13-3.1c2.2,0.2,5.8,0.4,9.7,2.8c1.6,1,5.7,3.5,7.1,8.4c0.7,2.4,0.5,3.8,0.4,4.3
							c-0.3,1.4-1.3,3.1-2.9,4.2c-1.4,0.9-3,1.2-3.8,2.7c-0.2,0.3-0.2,0.6-0.3,0.7c0,0.2-0.1,0.3-0.1,0.5c0.3,0,0.7,0,1-0.1
							C66.6,34,69.1,33.3,69.8,33.2z"/>
						<path d="M48.6,38.4L48.6,38.4L48.6,38.4L48.6,38.4z"/>
						<path d="M55.7,32.6c1.9,0.1,2.1,0.2,2.9,0.3c0.4,0,1.3,0.3,2.2,0.5c0.2-0.4,0.4-0.7,0.6-1.2c-1.7,0-3-0.2-3.9-0.5
							c-0.6-0.2-0.9-0.3-1.5-0.4c-1-0.2-2.2-0.4-3.3,0.1c-0.8,0.4-1.4,0.9-1.8,1.5C52.7,32.6,53.8,32.4,55.7,32.6z"/>
						<path d="M79,34.4c0,0-1.3-0.1-2.8-0.4c-1.5-0.3-2.3-0.5-3.9-0.5s-1.8,0.1-2.5,0.2c-0.7,0-3.2,0.7-3.8,0.9
							c-0.6,0.1-1.7,0.2-1.7,0.2s-1.1-0.1-1.7-0.2c-0.7-0.1-3.3-1-4.1-1.1s-1-0.2-2.9-0.3s-2.9,0.1-4.8,0.4
							c-1.8,0.3-3.6,0.3-3.6,0.3s-0.4,1.1-0.4,1.7c0,0.2,0,0.4,0,0.4c0.2,0.3,0.9,0.7,1.3,1.3c0.2,0.3,0.4,0.8,0.5,1.4l0,0
							c0.1,0.6,0.2,1.2,0.3,1.6c0.1,0.8,1,3.2,1.6,3.8s2.2,1.6,5.1,1.4c2.8-0.3,4.3-0.9,5.3-2.3c1-1.4,1.9-2.5,2.4-5.6
							c0,0,0.1-0.4,0.9-0.4c0.9,0,0.9,0.4,0.9,0.4c0.1,0.7,0.3,1.3,0.4,1.8c0.5,1.7,1.2,2.6,1.9,3.6c0.4,0.5,0.8,0.9,1.4,1.2
							c0.8,0.4,1.8,0.6,3.2,0.7c0.1,0,0.1,0,0.2,0c2.4,0.1,3.7-0.9,4.2-1.5c0.5-0.5,1.1-2.7,1.2-3.4c0-0.2,0.1-0.5,0.1-0.8
							c0.1-0.7,0.3-1.5,0.5-1.8c0.3-0.5,0.9-0.8,1-1.1c0-0.1,0-0.2,0-0.4C79.3,35.3,79,34.4,79,34.4z M48.8,35
							c-0.3,0-0.9-0.2-0.9-0.4s0.5-0.4,0.9-0.4c0,0,0.6,0,0.6,0.4S49,35,48.8,35z M77.8,35.5c-0.2,0-0.5,0-0.5-0.3s0.5-0.3,0.5-0.3
							c0.2,0,0.6,0.2,0.6,0.3C78.5,35.4,78,35.5,77.8,35.5z"/>
					</g>
				</g>
			</g>
			<g class="st3">
				<circle id="SVGID_2_" class="st4" cx="54.5" cy="54.1" r="53.1"/>
			</g>
		</g>
	</g>
</g>
</svg>
