<?xml version="1.0" encoding="utf-8"?>
<!-- Generator: Adobe Illustrator 16.0.0, SVG Export Plug-In . SVG Version: 6.00 Build 0)  -->
<!DOCTYPE svg PUBLIC "-//W3C//DTD SVG 1.1//EN" "http://www.w3.org/Graphics/SVG/1.1/DTD/svg11.dtd">
<svg version="1.1" id="Layer_1" xmlns="http://www.w3.org/2000/svg" xmlns:xlink="http://www.w3.org/1999/xlink" x="0px" y="0px"
	 width="378.122px" height="53.492px" viewBox="0 0 378.122 53.492" enable-background="new 0 0 378.122 53.492"
	 xml:space="preserve">
<g>
	<path fill="#FFFFFF" d="M0,0.35h11.074v21.61h22.479V0.35h11.049v52.375H33.553V31.089H11.074v21.636H0V0.35z"/>
	<path fill="#FFFFFF" d="M75.104,13.444h10.895v39.281h-10.46v-7.136h-0.408c-1.766,4.604-6.011,7.647-11.918,7.647
		c-7.902,0-13.273-5.601-13.299-14.782V13.444h10.895v23.067c0.025,4.629,2.686,7.519,6.803,7.519c3.913,0,7.52-2.762,7.493-8.03
		V13.444z"/>
	<path fill="#FFFFFF" d="M113.795,25.259c-0.537-2.532-2.789-4.603-6.572-4.603c-3.377,0-6.037,1.534-6.01,3.887
		c-0.027,1.892,1.328,3.146,4.986,3.938l7.109,1.433c7.621,1.56,11.328,4.961,11.355,10.639
		c-0.027,7.748-7.314,12.939-17.494,12.939c-10.408,0-16.801-4.629-17.824-12.146l10.715-0.563c0.666,3.196,3.248,4.858,7.137,4.858
		c3.809,0,6.342-1.662,6.393-3.989c-0.051-1.969-1.611-3.223-5.039-3.913l-6.801-1.355c-7.674-1.534-11.381-5.345-11.355-11.227
		c-0.025-7.57,6.598-12.225,16.648-12.225c9.922,0,15.754,4.476,16.725,11.713L113.795,25.259z"/>
	<path fill="#FFFFFF" d="M148.826,21.627h-7.391v19.026c0,3.018,1.51,3.836,3.684,3.836c1.021,0,2.174-0.255,2.711-0.357
		l1.713,8.107c-1.1,0.357-3.094,0.92-5.908,1.022c-7.902,0.333-13.145-3.478-13.094-11.176V21.627h-5.369v-8.184h5.369V4.033h10.895
		v9.411h7.391V21.627z"/>
	<path fill="#FFFFFF" d="M164.016,52.725h-10.895V0.35h10.895V52.725z"/>
	<path fill="#FFFFFF" d="M167.521,33.263c0-12.122,7.492-20.331,19.053-20.331c10.383,0,18.463,6.598,18.463,19.948v2.992h-26.75
		v0.025c0,5.855,3.453,9.462,8.9,9.462c3.631,0,6.445-1.56,7.545-4.552l10.076,0.664c-1.535,7.289-8.082,12.02-17.801,12.02
		C174.912,53.492,167.521,45.718,167.521,33.263z M194.783,29.121c-0.025-4.68-3.299-8.056-8.031-8.056
		c-4.832,0-8.234,3.58-8.465,8.056H194.783z"/>
	<path fill="#FFFFFF" d="M205.291,13.444h11.021l6.088,26.392h0.357l6.342-26.392h10.818l6.443,26.239h0.334l5.984-26.239h10.996
		l-10.664,39.281h-11.533l-6.752-24.704h-0.486l-6.752,24.704H215.98L205.291,13.444z"/>
	<path fill="#FFFFFF" d="M264,41.753c0-8.771,6.982-11.38,14.758-12.096c6.828-0.665,9.512-0.998,9.512-3.529v-0.153
		c0-3.223-2.121-5.089-5.83-5.089c-3.912,0-6.24,1.918-6.982,4.527l-10.074-0.818c1.508-7.161,7.697-11.662,17.107-11.662
		c8.746,0,16.674,3.938,16.674,13.299v26.494h-10.332v-5.447h-0.307c-1.918,3.657-5.676,6.188-11.482,6.188
		C269.551,53.466,264,49.529,264,41.753z M288.348,38.685v-4.168c-1.305,0.869-5.191,1.432-7.57,1.764
		c-3.836,0.537-6.367,2.047-6.367,5.115c0,2.992,2.402,4.553,5.754,4.553C284.945,45.949,288.348,42.802,288.348,38.685z"/>
	<path fill="#FFFFFF" d="M304.021,13.444h10.561v6.854h0.41c1.432-4.859,5.037-7.416,9.438-7.416c1.1,0,2.455,0.153,3.426,0.383
		v9.667c-1.023-0.333-3.094-0.588-4.604-0.588c-4.807,0-8.336,3.325-8.336,8.158v22.224h-10.895V13.444z"/>
	<path fill="#FFFFFF" d="M326.424,33.263c0-12.122,7.494-20.331,19.053-20.331c10.383,0,18.465,6.598,18.465,19.948v2.992h-26.75
		v0.025c0,5.855,3.453,9.462,8.898,9.462c3.633,0,6.445-1.56,7.545-4.552l10.076,0.664c-1.535,7.289-8.082,12.02-17.799,12.02
		C333.814,53.492,326.424,45.718,326.424,33.263z M353.686,29.121c-0.025-4.68-3.299-8.056-8.029-8.056
		c-4.834,0-8.234,3.58-8.465,8.056H353.686z"/>
</g>
<g>
	<path fill="#FFFFFF" d="M364.164,0h5.461v0.782h-2.289v6.499h-0.882V0.782h-2.29V0z"/>
	<path fill="#FFFFFF" d="M372.035,0l2.475,6.044h0.086L377.07,0h1.052v7.281h-0.825V1.749h-0.07l-2.275,5.532h-0.797l-2.275-5.532
		h-0.07v5.532h-0.825V0H372.035z"/>
</g>
</svg>
