<?xml version="1.0" encoding="utf-8"?>
<!-- Generator: Adobe Illustrator 16.0.0, SVG Export Plug-In . SVG Version: 6.00 Build 0)  -->
<!DOCTYPE svg PUBLIC "-//W3C//DTD SVG 1.1//EN" "http://www.w3.org/Graphics/SVG/1.1/DTD/svg11.dtd">
<svg version="1.1" id="Layer_1" xmlns="http://www.w3.org/2000/svg" xmlns:xlink="http://www.w3.org/1999/xlink" x="0px" y="0px"
	 width="383.392px" height="53.149px" viewBox="0 0 383.392 53.149" enable-background="new 0 0 383.392 53.149"
	 xml:space="preserve">
<g>
	<path fill="#FFFFFF" d="M0,0.006h11.073v21.61h22.479V0.006h11.048v52.375H33.553V30.746H11.073v21.635H0V0.006z"/>
	<path fill="#FFFFFF" d="M75.104,13.1h10.895v39.281H75.539v-7.135H75.13c-1.765,4.604-6.01,7.646-11.917,7.646
		c-7.902,0-13.273-5.602-13.298-14.781V13.1h10.895v23.067c0.025,4.629,2.685,7.519,6.802,7.519c3.913,0,7.519-2.762,7.493-8.029
		V13.1z"/>
	<path fill="#FFFFFF" d="M113.794,24.915c-0.537-2.532-2.788-4.603-6.572-4.603c-3.376,0-6.036,1.534-6.01,3.887
		c-0.026,1.892,1.329,3.146,4.986,3.938l7.109,1.433c7.621,1.56,11.329,4.961,11.355,10.639c-0.026,7.749-7.314,12.94-17.493,12.94
		c-10.408,0-16.802-4.629-17.825-12.148l10.715-0.563c0.665,3.197,3.248,4.859,7.136,4.859c3.81,0,6.342-1.662,6.393-3.989
		c-0.051-1.97-1.61-3.223-5.038-3.913l-6.802-1.355c-7.673-1.534-11.381-5.345-11.355-11.227
		c-0.026-7.57,6.598-12.225,16.648-12.225c9.923,0,15.754,4.476,16.726,11.713L113.794,24.915z"/>
	<path fill="#FFFFFF" d="M148.826,21.284h-7.391v19.027c0,3.018,1.509,3.836,3.683,3.836c1.022,0,2.174-0.256,2.711-0.358
		l1.713,8.106c-1.1,0.358-3.094,0.921-5.907,1.023c-7.902,0.332-13.145-3.479-13.094-11.176V21.284h-5.37V13.1h5.37V3.689h10.895
		V13.1h7.391V21.284z"/>
	<path fill="#FFFFFF" d="M164.016,52.381h-10.895V0.006h10.895V52.381z"/>
	<path fill="#FFFFFF" d="M167.521,32.92c0-12.122,7.493-20.332,19.053-20.332c10.383,0,18.464,6.598,18.464,19.948v2.992h-26.75
		v0.025c0,5.857,3.452,9.463,8.899,9.463c3.632,0,6.445-1.561,7.545-4.553l10.076,0.666c-1.535,7.288-8.082,12.02-17.8,12.02
		C174.911,53.149,167.521,45.374,167.521,32.92z M194.782,28.777c-0.025-4.68-3.299-8.056-8.03-8.056
		c-4.833,0-8.234,3.58-8.465,8.056H194.782z"/>
	<path fill="#FFFFFF" d="M205.29,13.1h11.022l6.087,26.393h0.357L229.1,13.1h10.817l6.444,26.238h0.333l5.984-26.238h10.996
		l-10.664,39.281h-11.533l-6.752-24.704h-0.485l-6.752,24.704H215.98L205.29,13.1z"/>
	<path fill="#FFFFFF" d="M264,41.411c0-8.772,6.982-11.381,14.757-12.097c6.828-0.665,9.513-0.998,9.513-3.529v-0.153
		c0-3.223-2.122-5.089-5.83-5.089c-3.913,0-6.24,1.918-6.982,4.527l-10.075-0.818c1.509-7.161,7.697-11.662,17.108-11.662
		c8.746,0,16.674,3.938,16.674,13.299v26.494h-10.332v-5.447h-0.307c-1.918,3.657-5.677,6.189-11.482,6.189
		C269.55,53.124,264,49.184,264,41.411z M288.347,38.341v-4.169c-1.305,0.87-5.191,1.433-7.57,1.766
		c-3.836,0.537-6.367,2.045-6.367,5.114c0,2.992,2.403,4.552,5.754,4.552C284.945,45.604,288.347,42.458,288.347,38.341z"/>
	<path fill="#FFFFFF" d="M304.021,13.1h10.562v6.854h0.409c1.433-4.859,5.038-7.416,9.438-7.416c1.1,0,2.455,0.153,3.427,0.383
		v9.667c-1.023-0.333-3.095-0.588-4.604-0.588c-4.808,0-8.337,3.325-8.337,8.158v22.224h-10.895V13.1z"/>
	<path fill="#FFFFFF" d="M326.424,32.92c0-12.122,7.493-20.332,19.053-20.332c10.383,0,18.464,6.598,18.464,19.948v2.992h-26.75
		v0.025c0,5.857,3.453,9.463,8.899,9.463c3.632,0,6.445-1.561,7.545-4.553l10.076,0.666c-1.535,7.288-8.082,12.02-17.8,12.02
		C333.814,53.149,326.424,45.374,326.424,32.92z M353.686,28.777c-0.025-4.68-3.299-8.056-8.03-8.056
		c-4.833,0-8.234,3.58-8.465,8.056H353.686z"/>
</g>
<g>
	<path fill="#FFFFFF" d="M363.856,0h7.641v1.094h-3.203v9.093h-1.233V1.094h-3.204V0z"/>
	<path fill="#FFFFFF" d="M374.876,0l3.461,8.457h0.12L381.919,0h1.473v10.188h-1.154v-7.74h-0.1l-3.184,7.74h-1.113l-3.184-7.74
		h-0.1v7.74h-1.154V0H374.876z"/>
</g>
</svg>
