<?xml version="1.0" encoding="utf-8"?>
<!-- Generator: Adobe Illustrator 24.2.1, SVG Export Plug-In . SVG Version: 6.00 Build 0)  -->
<svg version="1.1" id="Layer_1" xmlns="http://www.w3.org/2000/svg" xmlns:xlink="http://www.w3.org/1999/xlink" x="0px" y="0px"
	 viewBox="0 0 363.9 53.1" style="enable-background:new 0 0 363.9 53.1;" xml:space="preserve">
<style type="text/css">
	.st0{fill:#FFFFFF;}
</style>
<g>
	<path class="st0" d="M0,0h11.1v21.6h22.5V0h11v52.4h-11V30.7H11.1v21.6H0V0z"/>
	<path class="st0" d="M75.1,13.1H86v39.3H75.5v-7.1h-0.4c-1.8,4.6-6,7.6-11.9,7.6c-7.9,0-13.3-5.6-13.3-14.8v-25h10.9v23.1
		c0,4.6,2.7,7.5,6.8,7.5c3.9,0,7.5-2.8,7.5-8V13.1L75.1,13.1z"/>
	<path class="st0" d="M113.8,24.9c-0.5-2.5-2.8-4.6-6.6-4.6c-3.4,0-6,1.5-6,3.9c0,1.9,1.3,3.1,5,3.9l7.1,1.4
		c7.6,1.6,11.3,5,11.4,10.6c0,7.7-7.3,12.9-17.5,12.9c-10.4,0-16.8-4.6-17.8-12.1l10.7-0.6c0.7,3.2,3.2,4.9,7.1,4.9
		c3.8,0,6.3-1.7,6.4-4c-0.1-2-1.6-3.2-5-3.9l-6.8-1.4c-7.7-1.5-11.4-5.3-11.4-11.2c0-7.6,6.6-12.2,16.6-12.2
		c9.9,0,15.8,4.5,16.7,11.7L113.8,24.9z"/>
	<path class="st0" d="M148.8,21.3h-7.4v19c0,3,1.5,3.8,3.7,3.8c1,0,2.2-0.3,2.7-0.4l1.7,8.1c-1.1,0.4-3.1,0.9-5.9,1
		c-7.9,0.3-13.1-3.5-13.1-11.2V21.3h-5.4v-8.2h5.4V3.7h10.9v9.4h7.4L148.8,21.3L148.8,21.3z"/>
	<path class="st0" d="M164,52.4h-10.9V0H164V52.4z"/>
	<path class="st0" d="M167.5,32.9c0-12.1,7.5-20.3,19.1-20.3c10.4,0,18.5,6.6,18.5,19.9v3h-26.8l0,0c0,5.9,3.5,9.5,8.9,9.5
		c3.6,0,6.4-1.6,7.5-4.6l10.1,0.7c-1.5,7.3-8.1,12-17.8,12C174.9,53.1,167.5,45.4,167.5,32.9z M194.8,28.8c0-4.7-3.3-8.1-8-8.1
		c-4.8,0-8.2,3.6-8.5,8.1H194.8z"/>
	<path class="st0" d="M205.3,13.1h11l6.1,26.4h0.4l6.3-26.4h10.8l6.4,26.2h0.3l6-26.2h11L253,52.4h-11.5l-6.8-24.7h-0.5l-6.8,24.7
		H216L205.3,13.1z"/>
	<path class="st0" d="M264,41.4c0-8.8,7-11.4,14.8-12.1c6.8-0.7,9.5-1,9.5-3.5v-0.2c0-3.2-2.1-5.1-5.8-5.1c-3.9,0-6.2,1.9-7,4.5
		l-10.1-0.8c1.5-7.2,7.7-11.7,17.1-11.7c8.7,0,16.7,3.9,16.7,13.3v26.5h-10.3v-5.4h-0.3c-1.9,3.7-5.7,6.2-11.5,6.2
		C269.5,53.1,264,49.2,264,41.4z M288.3,38.3v-4.2c-1.3,0.9-5.2,1.4-7.6,1.8c-3.8,0.5-6.4,2-6.4,5.1c0,3,2.4,4.6,5.8,4.6
		C284.9,45.6,288.3,42.5,288.3,38.3z"/>
	<path class="st0" d="M304,13.1h10.6V20h0.4c1.4-4.9,5-7.4,9.4-7.4c1.1,0,2.5,0.2,3.4,0.4v9.7c-1-0.3-3.1-0.6-4.6-0.6
		c-4.8,0-8.3,3.3-8.3,8.2v22.2H304V13.1L304,13.1z"/>
	<path class="st0" d="M326.4,32.9c0-12.1,7.5-20.3,19.1-20.3c10.4,0,18.5,6.6,18.5,19.9v3h-26.7l0,0c0,5.9,3.5,9.5,8.9,9.5
		c3.6,0,6.4-1.6,7.5-4.6l10.1,0.7c-1.5,7.3-8.1,12-17.8,12C333.8,53.1,326.4,45.4,326.4,32.9z M353.7,28.8c0-4.7-3.3-8.1-8-8.1
		c-4.8,0-8.2,3.6-8.5,8.1H353.7z"/>
</g>
</svg>
