<?xml version="1.0" encoding="utf-8"?>
<!-- Generator: Adobe Illustrator 16.0.0, SVG Export Plug-In . SVG Version: 6.00 Build 0)  -->
<!DOCTYPE svg PUBLIC "-//W3C//DTD SVG 1.1//EN" "http://www.w3.org/Graphics/SVG/1.1/DTD/svg11.dtd">
<svg version="1.1" id="Layer_1" xmlns="http://www.w3.org/2000/svg" xmlns:xlink="http://www.w3.org/1999/xlink" x="0px" y="0px"
	 width="495.745px" height="87.945px" viewBox="0 0 495.745 87.945" enable-background="new 0 0 495.745 87.945"
	 xml:space="preserve">
<g>
	<path fill="#FFFFFF" d="M111.162,18.251h11.073v21.61h22.479v-21.61h11.048v52.375h-11.047V48.991h-22.479v21.635h-11.073V18.251z"
		/>
	<path fill="#FFFFFF" d="M186.266,31.346h10.896v39.28h-10.46v-7.135h-0.409c-1.765,4.604-6.01,7.646-11.917,7.646
		c-7.902,0-13.273-5.603-13.298-14.781V31.346h10.895v23.066c0.025,4.629,2.686,7.52,6.802,7.52c3.913,0,7.52-2.763,7.493-8.028
		L186.266,31.346L186.266,31.346z"/>
	<path fill="#FFFFFF" d="M224.956,43.16c-0.537-2.532-2.788-4.604-6.572-4.604c-3.376,0-6.036,1.533-6.01,3.888
		c-0.026,1.892,1.329,3.146,4.986,3.938l7.108,1.433c7.621,1.561,11.329,4.962,11.355,10.64
		c-0.026,7.749-7.314,12.939-17.493,12.939c-10.408,0-16.802-4.629-17.825-12.147l10.715-0.563c0.665,3.196,3.248,4.858,7.136,4.858
		c3.811,0,6.343-1.662,6.394-3.988c-0.051-1.971-1.61-3.224-5.038-3.913l-6.802-1.354c-7.673-1.534-11.381-5.346-11.355-11.228
		c-0.025-7.569,6.599-12.226,16.648-12.226c9.923,0,15.754,4.477,16.726,11.713L224.956,43.16z"/>
	<path fill="#FFFFFF" d="M259.988,39.529h-7.392v19.026c0,3.019,1.509,3.836,3.684,3.836c1.021,0,2.174-0.256,2.711-0.357
		l1.713,8.105c-1.101,0.357-3.094,0.921-5.907,1.022c-7.902,0.332-13.145-3.479-13.094-11.176V39.529h-5.37v-8.184h5.37v-9.411
		h10.895v9.411h7.392L259.988,39.529L259.988,39.529z"/>
	<path fill="#FFFFFF" d="M275.178,70.626h-10.895V18.251h10.895V70.626z"/>
	<path fill="#FFFFFF" d="M278.683,51.165c0-12.122,7.493-20.332,19.054-20.332c10.383,0,18.463,6.599,18.463,19.948v2.991h-26.75
		v0.024c0,5.857,3.451,9.464,8.898,9.464c3.632,0,6.444-1.562,7.545-4.554l10.076,0.666c-1.535,7.288-8.082,12.021-17.8,12.021
		C286.073,71.395,278.683,63.619,278.683,51.165z M305.944,47.022c-0.025-4.68-3.3-8.056-8.03-8.056
		c-4.833,0-8.234,3.579-8.465,8.056H305.944z"/>
	<path fill="#FFFFFF" d="M316.452,31.346h11.021l6.087,26.394h0.357l6.344-26.394h10.816l6.443,26.237h0.333l5.984-26.237h10.996
		l-10.663,39.28h-11.533l-6.752-24.704h-0.484l-6.753,24.704h-11.508L316.452,31.346z"/>
	<path fill="#FFFFFF" d="M375.162,59.656c0-8.771,6.98-11.381,14.756-12.098c6.828-0.665,9.514-0.998,9.514-3.528v-0.153
		c0-3.223-2.122-5.089-5.83-5.089c-3.913,0-6.239,1.918-6.981,4.526l-10.074-0.817c1.509-7.161,7.697-11.662,17.107-11.662
		c8.745,0,16.674,3.938,16.674,13.3v26.493h-10.332v-5.446h-0.308c-1.918,3.656-5.677,6.188-11.481,6.188
		C380.711,71.369,375.162,67.43,375.162,59.656z M399.509,56.586v-4.169c-1.306,0.87-5.191,1.434-7.57,1.767
		c-3.836,0.537-6.365,2.045-6.365,5.113c0,2.992,2.401,4.553,5.754,4.553C396.106,63.85,399.509,60.703,399.509,56.586z"/>
	<path fill="#FFFFFF" d="M415.183,31.346h10.563v6.854h0.41c1.432-4.859,5.036-7.416,9.438-7.416c1.101,0,2.455,0.152,3.428,0.383
		v9.667c-1.022-0.333-3.096-0.588-4.604-0.588c-4.808,0-8.336,3.325-8.336,8.158v22.224h-10.896L415.183,31.346L415.183,31.346z"/>
	<path fill="#FFFFFF" d="M437.586,51.165c0-12.122,7.492-20.332,19.053-20.332c10.383,0,18.465,6.599,18.465,19.948v2.991h-26.75
		v0.024c0,5.857,3.451,9.464,8.898,9.464c3.631,0,6.445-1.562,7.545-4.554l10.076,0.666c-1.535,7.288-8.082,12.021-17.801,12.021
		C444.977,71.395,437.586,63.619,437.586,51.165z M464.848,47.022c-0.024-4.68-3.299-8.056-8.028-8.056
		c-4.834,0-8.234,3.579-8.466,8.056H464.848z"/>
</g>
<g>
	<path fill="#FFFFFF" d="M475.018,18.245h7.642v1.094h-3.203v9.094h-1.232v-9.094h-3.203v-1.094H475.018z"/>
	<path fill="#FFFFFF" d="M486.037,18.245l3.461,8.457h0.121l3.461-8.457h1.473v10.188H493.4v-7.74h-0.102l-3.184,7.739h-1.113
		l-3.184-7.739h-0.101v7.739h-1.154V18.245H486.037z"/>
</g>
<g>
	<rect x="0.143" y="0.32" fill="#C03A2B" width="87.332" height="87.332"/>
	<polygon fill="#FFFFFF" points="70.009,52.72 52.542,35.253 70.009,35.253 	"/>
	<polygon fill="#FFFFFF" points="35.075,17.787 35.075,35.253 17.609,35.253 17.609,52.72 35.075,52.72 35.075,70.187 
		52.542,70.187 52.542,17.787 	"/>
</g>
</svg>
