<?xml version="1.0" encoding="utf-8"?>
<!-- Generator: Adobe Illustrator 16.0.0, SVG Export Plug-In . SVG Version: 6.00 Build 0)  -->
<!DOCTYPE svg PUBLIC "-//W3C//DTD SVG 1.1//EN" "http://www.w3.org/Graphics/SVG/1.1/DTD/svg11.dtd">
<svg version="1.1" id="Layer_1" xmlns="http://www.w3.org/2000/svg" xmlns:xlink="http://www.w3.org/1999/xlink" x="0px" y="0px"
	 width="495.746px" height="87.945px" viewBox="0 0 495.746 87.945" enable-background="new 0 0 495.746 87.945"
	 xml:space="preserve">
<g>
	<path fill="#231F20" d="M111.162,18.251h11.073v21.61h22.479v-21.61h11.048v52.375h-11.047V48.991h-22.479v21.635h-11.073
		L111.162,18.251L111.162,18.251z"/>
	<path fill="#231F20" d="M186.266,31.346h10.896v39.279h-10.46v-7.135h-0.409c-1.765,4.604-6.01,7.646-11.917,7.646
		c-7.902,0-13.273-5.603-13.298-14.78v-25.01h10.895v23.065c0.025,4.629,2.686,7.521,6.802,7.521c3.913,0,7.52-2.764,7.493-8.028
		L186.266,31.346L186.266,31.346z"/>
	<path fill="#231F20" d="M224.956,43.16c-0.537-2.532-2.788-4.604-6.572-4.604c-3.376,0-6.036,1.532-6.01,3.888
		c-0.026,1.892,1.329,3.146,4.986,3.938l7.108,1.434c7.621,1.561,11.329,4.962,11.355,10.64
		c-0.026,7.749-7.314,12.939-17.493,12.939c-10.408,0-16.802-4.629-17.825-12.147l10.715-0.563c0.665,3.195,3.248,4.857,7.136,4.857
		c3.811,0,6.343-1.662,6.394-3.987c-0.051-1.972-1.61-3.225-5.038-3.913l-6.802-1.354c-7.673-1.534-11.381-5.346-11.355-11.228
		c-0.025-7.569,6.599-12.227,16.648-12.227c9.923,0,15.754,4.478,16.726,11.713L224.956,43.16z"/>
	<path fill="#231F20" d="M259.988,39.529h-7.392v19.026c0,3.019,1.509,3.836,3.684,3.836c1.021,0,2.175-0.257,2.712-0.357
		l1.713,8.105c-1.102,0.356-3.095,0.921-5.908,1.021c-7.901,0.332-13.145-3.479-13.093-11.176V39.529h-5.37v-8.185h5.37v-9.41
		h10.895v9.41h7.392L259.988,39.529L259.988,39.529z"/>
	<path fill="#231F20" d="M275.178,70.626h-10.896V18.251h10.896V70.626z"/>
	<path fill="#231F20" d="M278.683,51.165c0-12.122,7.492-20.332,19.054-20.332c10.384,0,18.464,6.6,18.464,19.948v2.991h-26.75
		v0.023c0,5.857,3.45,9.464,8.897,9.464c3.632,0,6.444-1.562,7.545-4.554l10.076,0.666c-1.535,7.288-8.082,12.021-17.8,12.021
		C286.074,71.395,278.683,63.619,278.683,51.165z M305.944,47.022c-0.024-4.681-3.3-8.057-8.03-8.057
		c-4.832,0-8.233,3.579-8.465,8.057H305.944z"/>
	<path fill="#231F20" d="M316.453,31.346h11.021l6.087,26.394h0.357l6.344-26.394h10.816l6.442,26.236h0.333l5.984-26.236h10.996
		l-10.664,39.279h-11.532l-6.753-24.704h-0.483l-6.753,24.704H327.14L316.453,31.346z"/>
	<path fill="#231F20" d="M375.162,59.656c0-8.771,6.98-11.381,14.756-12.098c6.828-0.665,9.514-0.998,9.514-3.528v-0.153
		c0-3.223-2.121-5.089-5.829-5.089c-3.913,0-6.239,1.918-6.981,4.526l-10.074-0.817c1.51-7.161,7.697-11.662,17.107-11.662
		c8.746,0,16.674,3.938,16.674,13.3v26.493h-10.332v-5.445h-0.307c-1.92,3.655-5.678,6.188-11.482,6.188
		C380.71,71.369,375.162,67.43,375.162,59.656z M399.509,56.586v-4.169c-1.307,0.87-5.191,1.435-7.57,1.768
		c-3.836,0.537-6.365,2.045-6.365,5.112c0,2.992,2.401,4.554,5.754,4.554C396.107,63.85,399.509,60.703,399.509,56.586z"/>
	<path fill="#231F20" d="M415.183,31.346h10.563V38.2h0.41c1.432-4.859,5.037-7.416,9.438-7.416c1.102,0,2.455,0.152,3.43,0.383
		v9.667c-1.023-0.333-3.098-0.588-4.605-0.588c-4.807,0-8.336,3.325-8.336,8.158v22.224h-10.896L415.183,31.346L415.183,31.346z"/>
	<path fill="#231F20" d="M437.585,51.165c0-12.122,7.492-20.332,19.053-20.332c10.385,0,18.465,6.6,18.465,19.948v2.991h-26.75
		v0.023c0,5.857,3.451,9.464,8.898,9.464c3.631,0,6.445-1.562,7.545-4.554l10.076,0.666c-1.535,7.288-8.082,12.021-17.801,12.021
		C444.976,71.395,437.585,63.619,437.585,51.165z M464.847,47.022c-0.023-4.681-3.299-8.057-8.027-8.057
		c-4.834,0-8.234,3.579-8.467,8.057H464.847z"/>
</g>
<g>
	<rect x="0.143" y="0.32" fill="#C03A2B" width="87.332" height="87.332"/>
	<polygon fill="#FFFFFF" points="70.009,52.719 52.542,35.253 70.009,35.253 	"/>
	<polygon fill="#FFFFFF" points="35.075,17.787 35.075,35.253 17.609,35.253 17.609,52.719 35.075,52.719 35.075,70.187 
		52.542,70.187 52.542,17.787 	"/>
</g>
</svg>
