<?xml version="1.0" standalone="no"?>
<!DOCTYPE svg PUBLIC "-//W3C//DTD SVG 20010904//EN"
 "http://www.w3.org/TR/2001/REC-SVG-20010904/DTD/svg10.dtd">
<svg version="1.0" xmlns="http://www.w3.org/2000/svg"
 width="512.000000pt" height="512.000000pt" viewBox="0 0 512.000000 512.000000"
 preserveAspectRatio="xMidYMid meet">
<metadata>
Created by potrace 1.14, written by Peter Selinger 2001-2017
</metadata>
<g transform="translate(0.000000,512.000000) scale(0.100000,-0.100000)"
fill="#000000" stroke="none">
<path d="M0 2560 l0 -2560 2560 0 2560 0 0 2560 0 2560 -2560 0 -2560 0 0
-2560z m2050 1025 l0 -515 510 0 510 0 0 515 0 515 513 -2 512 -3 0 -1535 0
-1535 -512 -3 -513 -2 0 515 0 515 -510 0 -510 0 0 -515 0 -515 -512 2 -513 3
-3 1525 c-1 839 0 1531 3 1538 3 9 116 12 515 12 l510 0 0 -515z"/>
</g>
</svg>
