<?xml version="1.0" standalone="no"?>
<!DOCTYPE svg PUBLIC "-//W3C//DTD SVG 20010904//EN"
 "http://www.w3.org/TR/2001/REC-SVG-20010904/DTD/svg10.dtd">
<svg version="1.0" xmlns="http://www.w3.org/2000/svg"
 width="260.000000pt" height="260.000000pt" viewBox="0 0 260.000000 260.000000"
 preserveAspectRatio="xMidYMid meet">
<metadata>
Created by potrace 1.14, written by Peter Selinger 2001-2017
</metadata>
<g transform="translate(0.000000,260.000000) scale(0.100000,-0.100000)"
fill="#000000" stroke="none">
<path d="M1159 2595 c-2 -1 -26 -6 -54 -10 -213 -28 -445 -129 -622 -272 -190
-152 -339 -368 -417 -603 -33 -101 -38 -121 -56 -240 -13 -87 -5 -325 14 -415
70 -328 243 -601 502 -792 136 -100 335 -191 484 -222 30 -6 66 -14 80 -17 14
-3 90 -7 170 -10 112 -3 170 1 256 16 452 79 830 391 991 819 77 205 101 457
63 676 -69 402 -321 744 -686 933 -74 38 -224 94 -284 106 -14 2 -50 10 -80
16 -50 11 -353 24 -361 15z"/>
</g>
</svg>
