<svg width="512" height="512" viewBox="0 0 512 512" fill="none" xmlns="http://www.w3.org/2000/svg">
<rect width="512" height="512" fill="#4E78A0"/>
<path d="M224.974 255.974L301.897 300.076L344.461 325.205C359.333 333.923 359.333 355.974 343.949 365.205L301.384 390.333L224.974 434.948L224.461 434.436V345.718L224.974 345.205L224.461 344.692L159.846 306.743C154.718 304.179 154.718 297 159.846 293.923L223.949 256.486L224.461 255.974H224.974ZM301.897 121.615L344.461 146.743C359.846 155.461 359.846 177.512 344.461 186.23L301.384 210.846L224.974 255.974L223.949 254.948L159.846 217.513C154.718 214.949 154.718 207.769 159.846 204.692L224.461 167.256L224.974 166.743L224.461 166.23V77.5127L224.974 77L301.897 121.615Z" fill="#F7F7F7"/>
</svg>
