<svg width="512" height="512" viewBox="0 0 512 512" fill="none" xmlns="http://www.w3.org/2000/svg">
<rect width="512" height="512" fill="white"/>
<g clip-path="url(#clip0_57_8)">
<path d="M347.392 324.877C346.141 315.455 342.305 306.282 336.051 298.444L326.462 308.033C330.965 314.121 333.55 321.125 334.3 328.296C338.803 328.13 343.306 326.962 347.392 324.877Z" fill="#231F20"/>
<path d="M328.213 353.729C326.629 356.231 324.794 358.566 322.626 360.734C308.283 375.076 285.769 376.327 270.009 364.57L260.419 374.159C281.6 391.17 312.536 389.836 332.215 370.24C337.385 365.07 341.305 359.066 343.89 352.729C338.72 353.729 333.466 354.063 328.213 353.729Z" fill="#231F20"/>
<path d="M298.277 308.951L307.783 318.457L318.457 307.783H318.373L339.47 286.686L356.481 269.759L346.975 260.253L329.547 277.681L308.45 298.777V298.694L298.277 308.951Z" fill="#231F20"/>
<path d="M275.012 256L284.518 265.506L308.951 289.938L318.457 280.349L294.108 256L284.518 246.494L269.759 231.651L260.253 241.241L275.012 256Z" fill="#231F20"/>
<path d="M239.906 291.189L222.145 308.951L231.651 318.457L256 294.108L265.506 284.518L280.265 269.759L270.759 260.253L260.92 270.092L239.906 291.189Z" fill="#231F20"/>
<path d="M256 351.144L246.494 360.65C230.9 376.244 205.551 376.41 189.791 361.067L189.624 360.901C189.541 360.817 189.457 360.734 189.374 360.65C186.789 358.065 184.704 355.23 182.953 352.312C182.119 350.894 181.369 349.393 180.785 347.892C180.785 347.892 180.785 347.892 180.868 347.892C179.034 343.556 178.033 338.97 177.783 334.384C177.783 334.384 177.783 334.384 177.7 334.384C177.116 323.376 180.952 312.119 189.29 303.697L210.387 282.6L223.312 269.675L213.723 260.253L189.374 284.518L179.868 294.024C179.868 294.108 179.784 294.108 179.784 294.191C170.028 304.031 164.775 316.706 164.191 329.63V329.714C163.941 335.468 164.608 341.221 166.192 346.808C166.359 347.392 166.526 347.892 166.693 348.476C166.859 348.893 166.943 349.31 167.11 349.81C167.36 350.561 167.61 351.311 167.943 352.062C168.11 352.562 168.36 353.146 168.611 353.646C168.861 354.23 169.111 354.73 169.361 355.314C169.611 355.814 169.778 356.231 170.028 356.648C170.278 357.148 170.528 357.565 170.779 357.982C171.029 358.482 171.279 358.899 171.529 359.4C171.779 359.817 172.029 360.317 172.363 360.734C172.863 361.568 173.364 362.318 173.947 363.152C174.197 363.569 174.448 363.902 174.781 364.319C175.115 364.82 175.532 365.237 175.865 365.737C176.115 366.071 176.449 366.487 176.699 366.821C177.116 367.238 177.45 367.738 177.866 368.155C178.2 368.489 178.534 368.906 178.867 369.239C179.201 369.573 179.534 369.99 179.868 370.323C200.464 390.92 233.652 391.337 254.749 371.491L273.178 352.979L289.772 336.385L280.265 326.879L256 351.144Z" fill="#231F20"/>
<path d="M158.271 328.213C155.769 326.629 153.434 324.794 151.266 322.626C136.924 308.284 135.673 285.769 147.43 270.009L137.841 260.42C120.83 281.6 122.164 312.536 141.76 332.216C146.93 337.386 152.934 341.305 159.271 343.89C158.271 338.72 157.937 333.466 158.271 328.213Z" fill="#231F20"/>
<path d="M203.133 298.277L193.543 307.783L204.217 318.457V318.373L225.314 339.47L242.241 356.481L251.747 346.975L234.319 329.547L213.222 308.45H213.306L203.133 298.277Z" fill="#231F20"/>
<path d="M187.122 347.392C196.545 346.141 205.718 342.305 213.556 336.051L203.967 326.462C197.879 330.965 190.875 333.633 183.704 334.3C183.954 338.803 185.038 343.306 187.122 347.392Z" fill="#231F20"/>
<path d="M151.266 246.494C135.673 230.901 135.506 205.551 150.849 189.791L151.016 189.624C151.099 189.541 151.183 189.457 151.266 189.374C153.851 186.789 156.603 184.704 159.605 182.953C161.022 182.119 162.523 181.369 164.024 180.785C164.024 180.785 164.024 180.785 164.024 180.869C168.36 179.034 172.947 178.033 177.533 177.783C177.533 177.783 177.533 177.783 177.533 177.7C188.54 177.116 199.797 180.952 208.219 189.291L229.316 210.387L242.241 223.312L251.747 213.806L227.482 189.374L217.976 179.868C217.976 179.868 217.892 179.785 217.809 179.785C207.969 170.028 195.294 164.775 182.369 164.191H182.286C176.532 163.941 170.779 164.608 165.192 166.192C164.608 166.359 164.024 166.526 163.524 166.693C163.107 166.86 162.69 166.943 162.273 167.11C161.523 167.36 160.689 167.693 159.938 167.944C159.438 168.11 159.021 168.361 158.521 168.527C157.937 168.777 157.353 169.028 156.853 169.278C156.436 169.528 155.936 169.695 155.519 169.945C155.019 170.195 154.602 170.445 154.101 170.695C153.601 170.946 153.184 171.196 152.767 171.446C152.267 171.696 151.85 172.03 151.349 172.28C150.599 172.78 149.765 173.28 149.015 173.864C148.598 174.114 148.264 174.448 147.847 174.698C147.347 175.031 146.93 175.448 146.43 175.782C146.096 176.032 145.679 176.366 145.346 176.699C144.929 177.116 144.428 177.45 144.011 177.867C143.678 178.2 143.261 178.534 142.927 178.867C142.594 179.201 142.177 179.534 141.843 179.868C121.247 200.464 120.83 233.652 140.676 254.749L159.188 273.261L175.782 289.855L185.205 280.349L160.856 256L151.266 246.494Z" fill="#231F20"/>
<path d="M164.608 187.122C165.859 196.545 169.695 205.718 175.949 213.556L185.538 203.967C181.035 197.879 178.367 190.875 177.7 183.62C173.197 183.954 168.777 185.038 164.608 187.122Z" fill="#231F20"/>
<path d="M183.787 158.271C185.371 155.769 187.206 153.434 189.374 151.266C203.716 136.924 226.231 135.673 242.074 147.43L251.664 137.841C230.484 120.83 199.464 122.164 179.868 141.76C174.698 146.93 170.779 152.934 168.194 159.271C173.28 158.271 178.534 157.937 183.787 158.271Z" fill="#231F20"/>
<path d="M221.228 240.24L203.049 222.145L193.543 231.651L217.892 256L227.482 265.506L242.324 280.349L251.831 270.843L242.324 261.337L221.228 240.24Z" fill="#231F20"/>
<path d="M182.453 234.319L203.55 213.223V213.306L213.723 203.049L204.217 193.543L193.627 204.217L172.53 225.314L155.519 242.241L165.025 251.747L182.453 234.319Z" fill="#231F20"/>
<path d="M353.729 183.787C356.231 185.371 358.566 187.206 360.734 189.374C375.076 203.717 376.327 226.231 364.569 241.991L374.159 251.581C391.17 230.4 389.836 199.464 370.24 179.785C365.07 174.615 359.066 170.695 352.729 168.11C353.729 173.28 354.063 178.534 353.729 183.787Z" fill="#231F20"/>
<path d="M324.877 164.608C315.455 165.859 306.282 169.695 298.444 175.949L308.033 185.538C314.121 181.035 321.125 178.367 328.296 177.7C328.13 173.197 326.962 168.777 324.877 164.608Z" fill="#231F20"/>
<path d="M269.759 155.519L260.253 165.025L277.681 182.453L298.777 203.55H298.694L308.951 213.723L318.457 204.217L307.783 193.627L286.686 172.53H286.77L269.759 155.519Z" fill="#231F20"/>
<path d="M371.407 257.251L352.895 238.739L336.301 222.145L326.795 231.651L351.144 256L360.65 265.506C376.244 281.099 376.41 306.449 361.067 322.209L360.901 322.376C360.817 322.459 360.734 322.543 360.65 322.626C358.065 325.211 355.23 327.296 352.312 329.047C350.894 329.881 349.393 330.631 347.892 331.215C347.892 331.215 347.892 331.215 347.892 331.132C343.556 332.966 338.97 333.967 334.384 334.217V334.3C323.376 334.884 312.203 331.048 303.781 322.709L282.684 301.613L269.759 288.688L260.253 298.277L284.602 322.626L294.108 332.132C294.191 332.216 294.191 332.216 294.275 332.216C304.114 341.972 316.872 347.225 329.714 347.809C329.714 347.809 329.714 347.809 329.797 347.809C335.551 348.059 341.305 347.392 346.975 345.808C347.559 345.641 348.059 345.474 348.643 345.307C349.06 345.141 349.477 345.057 349.977 344.89C350.727 344.64 351.394 344.39 352.145 344.057C352.729 343.806 353.312 343.556 353.813 343.389C354.313 343.139 354.897 342.889 355.397 342.639C355.897 342.389 356.314 342.139 356.815 341.972C357.232 341.722 357.732 341.472 358.149 341.305C358.649 341.055 359.066 340.804 359.566 340.554C359.983 340.304 360.4 340.054 360.901 339.72C361.734 339.22 362.568 338.636 363.319 338.136C363.736 337.886 364.069 337.636 364.486 337.302C364.987 336.969 365.403 336.552 365.904 336.218C366.237 335.968 366.654 335.634 366.988 335.384C367.405 334.967 367.905 334.634 368.322 334.217C368.656 333.883 369.072 333.55 369.406 333.216C369.74 332.883 370.156 332.549 370.49 332.216C390.836 311.536 391.253 278.348 371.407 257.251Z" fill="#231F20"/>
<path d="M280.349 193.543L256 217.892L246.494 227.482L231.651 242.325L241.157 251.831L256 236.988L265.506 227.482L289.938 203.049L280.349 193.543Z" fill="#231F20"/>
<path d="M332.132 217.976C332.132 217.892 332.132 217.892 332.132 217.976C332.215 217.892 332.215 217.892 332.299 217.809C341.471 208.636 346.558 196.962 347.725 184.954V184.871C347.809 184.037 347.892 183.203 347.892 182.37C347.892 182.286 347.892 182.286 347.892 182.203C348.142 176.449 347.475 170.695 345.891 165.192C345.724 164.608 345.557 164.024 345.391 163.524C345.224 163.107 345.14 162.69 344.974 162.273C344.723 161.523 344.39 160.689 344.14 159.938C343.973 159.438 343.723 159.021 343.556 158.521C343.306 157.937 343.056 157.353 342.806 156.853C342.555 156.436 342.389 155.936 342.139 155.519C341.888 155.019 341.638 154.602 341.388 154.101C341.138 153.601 340.888 153.184 340.638 152.684C340.387 152.183 340.054 151.767 339.804 151.266C339.303 150.516 338.803 149.682 338.219 148.931C337.969 148.514 337.636 148.181 337.385 147.764C337.052 147.264 336.635 146.847 336.301 146.346C336.051 146.013 335.718 145.596 335.384 145.262C334.967 144.845 334.634 144.345 334.217 143.928C333.883 143.595 333.55 143.178 333.216 142.844C332.883 142.511 332.549 142.094 332.215 141.76C311.619 121.164 278.431 120.747 257.334 140.593L238.822 159.105L222.228 175.699L231.651 185.205L256 160.856L265.506 151.35C281.099 135.756 306.449 135.59 322.209 150.933L322.376 151.099C322.459 151.183 322.543 151.266 322.626 151.35C325.211 153.935 327.296 156.77 329.047 159.688C329.881 161.106 330.631 162.607 331.215 164.108C331.215 164.108 331.215 164.108 331.131 164.108C332.966 168.444 333.967 173.03 334.217 177.616C334.217 177.616 334.217 177.616 334.3 177.616C334.884 188.624 331.048 199.797 322.709 208.219L301.613 229.316L288.688 242.241L298.194 251.747L322.543 227.398L332.132 217.976Z" fill="#231F20"/>
</g>
<defs>
<clipPath id="clip0_57_8">
<rect width="260" height="260" fill="white" transform="translate(126 126)"/>
</clipPath>
</defs>
</svg>
