<svg width="512" height="512" viewBox="0 0 512 512" fill="none" xmlns="http://www.w3.org/2000/svg">
<rect width="512" height="512" fill="#231F20"/>
<g clip-path="url(#clip0_11_2)">
<path d="M361.452 335.474C360.009 324.602 355.583 314.018 348.367 304.974L337.302 316.038C342.498 323.062 345.48 331.144 346.346 339.419C351.542 339.226 356.738 337.879 361.452 335.474Z" fill="white"/>
<path d="M339.323 368.765C337.494 371.651 335.378 374.345 332.876 376.847C316.327 393.396 290.349 394.839 272.164 381.273L261.099 392.337C285.538 411.965 321.234 410.426 343.941 387.815C349.906 381.85 354.428 374.922 357.411 367.61C351.446 368.765 345.384 369.149 339.323 368.765Z" fill="white"/>
<path d="M304.781 317.097L315.75 328.065L328.065 315.75H327.969L352.312 291.407L371.94 271.876L360.971 260.907L340.862 281.016L316.52 305.359V305.262L304.781 317.097Z" fill="white"/>
<path d="M277.937 256L288.906 266.969L317.097 295.16L328.065 284.095L299.97 256L288.906 245.031L271.876 227.905L260.907 238.97L277.937 256Z" fill="white"/>
<path d="M237.43 296.603L216.937 317.097L227.905 328.065L256 299.971L266.969 288.906L283.999 271.876L273.03 260.907L261.677 272.26L237.43 296.603Z" fill="white"/>
<path d="M256 365.782L245.031 376.75C227.039 394.743 197.79 394.935 179.605 377.232L179.412 377.039C179.316 376.943 179.22 376.847 179.124 376.75C176.141 373.768 173.736 370.496 171.715 367.129C170.753 365.493 169.887 363.761 169.213 362.03C169.213 362.03 169.214 362.03 169.31 362.03C167.193 357.026 166.038 351.734 165.75 346.443C165.75 346.443 165.75 346.443 165.654 346.443C164.98 333.742 169.406 320.753 179.027 311.035L203.37 286.693L218.283 271.779L207.219 260.907L179.124 288.906L168.155 299.874C168.155 299.971 168.059 299.97 168.059 300.067C156.802 311.42 150.74 326.045 150.067 340.958V341.055C149.778 347.693 150.548 354.332 152.376 360.779C152.568 361.452 152.761 362.03 152.953 362.703C153.146 363.184 153.242 363.665 153.434 364.242C153.723 365.108 154.011 365.974 154.396 366.84C154.589 367.418 154.877 368.091 155.166 368.668C155.455 369.342 155.743 369.919 156.032 370.593C156.321 371.17 156.513 371.651 156.802 372.132C157.09 372.709 157.379 373.191 157.668 373.672C157.956 374.249 158.245 374.73 158.534 375.307C158.822 375.788 159.111 376.366 159.496 376.847C160.073 377.809 160.65 378.675 161.324 379.637C161.612 380.118 161.901 380.503 162.286 380.984C162.671 381.561 163.152 382.042 163.537 382.62C163.825 383.005 164.21 383.486 164.499 383.87C164.98 384.352 165.365 384.929 165.846 385.41C166.231 385.795 166.616 386.276 167.001 386.661C167.385 387.046 167.77 387.527 168.155 387.911C191.92 411.677 230.214 412.158 254.557 389.259L275.82 367.899L294.967 348.752L283.999 337.783L256 365.782Z" fill="white"/>
<path d="M143.235 339.323C140.349 337.495 137.655 335.378 135.153 332.876C118.604 316.327 117.161 290.349 130.727 272.164L119.663 261.099C100.035 285.538 101.574 321.234 124.185 343.941C130.15 349.906 137.078 354.428 144.39 357.411C143.235 351.446 142.851 345.384 143.235 339.323Z" fill="white"/>
<path d="M194.999 304.781L183.935 315.75L196.25 328.065V327.969L220.593 352.312L240.124 371.94L251.093 360.971L230.984 340.862L206.641 316.52H206.738L194.999 304.781Z" fill="white"/>
<path d="M176.526 361.452C187.398 360.009 197.982 355.583 207.026 348.367L195.961 337.302C188.938 342.498 180.856 345.577 172.581 346.346C172.87 351.542 174.121 356.738 176.526 361.452Z" fill="white"/>
<path d="M135.153 245.031C117.161 227.039 116.969 197.79 134.672 179.605L134.865 179.412C134.961 179.316 135.057 179.22 135.153 179.124C138.136 176.141 141.311 173.736 144.775 171.715C146.411 170.753 148.142 169.887 149.874 169.214C149.874 169.214 149.874 169.214 149.874 169.31C154.878 167.193 160.169 166.038 165.461 165.75C165.461 165.75 165.461 165.75 165.461 165.654C178.162 164.98 191.151 169.406 200.869 179.028L225.211 203.37L240.124 218.284L251.093 207.315L223.094 179.124L212.126 168.155C212.126 168.155 212.03 168.059 211.933 168.059C200.58 156.802 185.955 150.74 171.042 150.067H170.946C164.307 149.778 157.668 150.548 151.221 152.376C150.548 152.568 149.874 152.761 149.297 152.953C148.816 153.146 148.335 153.242 147.854 153.434C146.988 153.723 146.026 154.108 145.16 154.396C144.582 154.589 144.101 154.877 143.524 155.07C142.851 155.359 142.177 155.647 141.6 155.936C141.119 156.225 140.541 156.417 140.06 156.706C139.483 156.994 139.002 157.283 138.425 157.572C137.847 157.86 137.366 158.149 136.885 158.437C136.308 158.726 135.827 159.111 135.25 159.4C134.384 159.977 133.421 160.554 132.556 161.228C132.074 161.516 131.69 161.901 131.209 162.19C130.631 162.575 130.15 163.056 129.573 163.441C129.188 163.729 128.707 164.114 128.322 164.499C127.841 164.98 127.264 165.365 126.783 165.846C126.398 166.231 125.917 166.616 125.532 167.001C125.147 167.386 124.666 167.77 124.281 168.155C100.516 191.92 100.035 230.214 122.934 254.557L144.294 275.917L163.441 295.064L174.313 284.095L146.218 256L135.153 245.031Z" fill="white"/>
<path d="M150.548 176.526C151.991 187.398 156.417 197.982 163.633 207.026L174.698 195.962C169.502 188.938 166.423 180.856 165.653 172.485C160.458 172.87 155.358 174.121 150.548 176.526Z" fill="white"/>
<path d="M172.677 143.235C174.505 140.349 176.622 137.655 179.124 135.153C195.673 118.604 221.651 117.161 239.932 130.727L250.997 119.663C226.558 100.035 190.766 101.574 168.155 124.185C162.19 130.15 157.668 137.078 154.685 144.39C160.554 143.235 166.616 142.851 172.677 143.235Z" fill="white"/>
<path d="M215.878 237.815L194.903 216.937L183.935 227.905L212.03 256L223.094 266.969L240.221 284.095L251.189 273.126L240.221 262.158L215.878 237.815Z" fill="white"/>
<path d="M171.138 230.984L195.48 206.641V206.738L207.219 194.903L196.25 183.935L184.031 196.25L159.688 220.593L140.06 240.124L151.029 251.093L171.138 230.984Z" fill="white"/>
<path d="M368.765 172.677C371.651 174.505 374.345 176.622 376.847 179.124C393.396 195.673 394.839 221.651 381.273 239.836L392.338 250.901C411.965 226.462 410.426 190.766 387.815 168.059C381.85 162.094 374.922 157.572 367.61 154.589C368.765 160.554 369.15 166.616 368.765 172.677Z" fill="white"/>
<path d="M335.474 150.548C324.602 151.991 314.018 156.417 304.974 163.633L316.038 174.698C323.062 169.502 331.144 166.423 339.419 165.654C339.226 160.458 337.879 155.359 335.474 150.548Z" fill="white"/>
<path d="M271.876 140.06L260.907 151.029L281.016 171.138L305.359 195.48H305.262L317.097 207.219L328.065 196.25L315.75 184.031L291.407 159.688H291.504L271.876 140.06Z" fill="white"/>
<path d="M389.162 257.443L367.802 236.083L348.656 216.937L337.687 227.905L365.782 256L376.75 266.969C394.743 284.961 394.935 314.21 377.232 332.395L377.039 332.588C376.943 332.684 376.847 332.78 376.75 332.876C373.768 335.859 370.496 338.264 367.129 340.285C365.493 341.247 363.761 342.113 362.03 342.786C362.03 342.786 362.03 342.786 362.03 342.69C357.026 344.807 351.734 345.962 346.443 346.25V346.346C333.742 347.02 320.849 342.594 311.131 332.972L286.789 308.63L271.876 293.717L260.907 304.781L289.002 332.876L299.97 343.845C300.067 343.941 300.067 343.941 300.163 343.941C311.516 355.198 326.237 361.26 341.055 361.933C341.055 361.933 341.055 361.933 341.151 361.933C347.79 362.222 354.428 361.452 360.971 359.624C361.645 359.432 362.222 359.239 362.895 359.047C363.377 358.854 363.858 358.758 364.435 358.566C365.301 358.277 366.071 357.988 366.937 357.604C367.61 357.315 368.284 357.026 368.861 356.834C369.438 356.545 370.112 356.257 370.689 355.968C371.266 355.679 371.747 355.391 372.325 355.198C372.806 354.91 373.383 354.621 373.864 354.429C374.441 354.14 374.922 353.851 375.5 353.563C375.981 353.274 376.462 352.985 377.039 352.6C378.001 352.023 378.963 351.35 379.829 350.772C380.31 350.484 380.695 350.195 381.176 349.81C381.754 349.425 382.235 348.944 382.812 348.559C383.197 348.271 383.678 347.886 384.063 347.597C384.544 347.116 385.121 346.731 385.602 346.25C385.987 345.865 386.468 345.48 386.853 345.096C387.238 344.711 387.719 344.326 388.104 343.941C411.581 320.08 412.062 281.786 389.162 257.443Z" fill="white"/>
<path d="M284.095 183.935L256 212.03L245.031 223.094L227.905 240.221L238.874 251.189L256 234.063L266.969 223.094L295.16 194.903L284.095 183.935Z" fill="white"/>
<path d="M343.845 212.126C343.845 212.03 343.845 212.03 343.845 212.126C343.941 212.03 343.941 212.03 344.037 211.933C354.621 201.35 360.49 187.879 361.837 174.024V173.928C361.933 172.966 362.03 172.004 362.03 171.042C362.03 170.945 362.03 170.945 362.03 170.849C362.318 164.21 361.548 157.572 359.72 151.221C359.528 150.548 359.335 149.874 359.143 149.297C358.951 148.816 358.854 148.335 358.662 147.854C358.373 146.988 357.988 146.026 357.7 145.16C357.507 144.582 357.219 144.101 357.026 143.524C356.738 142.851 356.449 142.177 356.16 141.6C355.872 141.119 355.679 140.541 355.391 140.06C355.102 139.483 354.813 139.002 354.525 138.425C354.236 137.847 353.947 137.366 353.659 136.789C353.37 136.212 352.985 135.731 352.697 135.153C352.119 134.287 351.542 133.325 350.869 132.459C350.58 131.978 350.195 131.593 349.906 131.112C349.522 130.535 349.04 130.054 348.656 129.477C348.367 129.092 347.982 128.611 347.597 128.226C347.116 127.745 346.731 127.167 346.25 126.686C345.865 126.301 345.48 125.82 345.096 125.436C344.711 125.051 344.326 124.57 343.941 124.185C320.176 100.419 281.882 99.9384 257.539 122.838L236.18 144.198L217.033 163.344L227.905 174.313L256 146.218L266.969 135.25C284.961 117.257 314.21 117.065 332.395 134.768L332.588 134.961C332.684 135.057 332.78 135.153 332.876 135.25C335.859 138.232 338.264 141.504 340.285 144.871C341.247 146.507 342.113 148.239 342.786 149.97C342.786 149.97 342.786 149.97 342.69 149.97C344.807 154.974 345.962 160.266 346.25 165.557C346.25 165.557 346.25 165.557 346.346 165.557C347.02 178.258 342.594 191.151 332.972 200.869L308.63 225.211L293.716 240.124L304.685 251.093L332.78 222.998L343.845 212.126Z" fill="white"/>
</g>
<defs>
<clipPath id="clip0_11_2">
<rect width="300" height="300" fill="white" transform="translate(106 106)"/>
</clipPath>
</defs>
</svg>
