<?xml version="1.0" encoding="utf-8"?>
<!-- Generator: Adobe Illustrator 24.2.1, SVG Export Plug-In . SVG Version: 6.00 Build 0)  -->
<svg version="1.1" id="Layer_1" xmlns="http://www.w3.org/2000/svg" xmlns:xlink="http://www.w3.org/1999/xlink" x="0px" y="0px"
	 viewBox="0 0 976.6 131.5" style="enable-background:new 0 0 976.6 131.5;" xml:space="preserve">
<style type="text/css">
	.st0{fill:#FFFFFF;}
</style>
<g>
	<path class="st0" d="M0,0h35v49.6h49.6V0h35v128.6h-35V78.5H35v50.1H0V0z"/>
	<path class="st0" d="M132.6,93.8V27.3h32V87c0,11.1,4.9,17.2,15.2,17.2c11.1,0,17.8-8.3,17.8-20.4V27.3h32.2v101.3H199v-12.5h-0.6
		c-7.3,9.9-16.2,15.4-30.3,15.4C144.8,131.5,132.6,116.3,132.6,93.8z"/>
	<path class="st0" d="M238,95.7h30.5c1.2,10.1,7.9,15,18.6,15c9.7,0,15.8-3.6,15.8-10.1c0-9.1-12.3-10.1-25.7-12.5
		c-17.6-3-36.4-7.7-36.4-31.4c0-21.4,19.8-32.4,43.7-32.4c28.7,0,44.1,12.5,45.7,32.4h-29.7c-1.2-9.1-7.3-11.9-16.2-11.9
		c-7.9,0-14,3-14,9.3c0,7.1,11.5,8.1,24.3,10.5c17.8,3,38.8,7.5,38.8,33.4c0,22.1-19.6,33.6-46.1,33.6
		C257.6,131.7,239,118.1,238,95.7z"/>
	<path class="st0" d="M341.4,101.9V47.5V27.3l32-27.3l-0.6,27.3h18.4v20.2h-18.4v47.5c0,7.9,4.4,9.9,11.3,9.9c2.8,0,5.9-0.2,7.1-0.2
		v23.5c-2.8,0.8-8.9,1.6-17.6,1.6C354.9,129.8,341.4,123.6,341.4,101.9z"/>
	<path class="st0" d="M402.1,0h32.6l-0.8,128.6h-32.6L402.1,0z"/>
	<path class="st0" d="M442.8,77.7c0-30.3,21.2-53.4,52-53.4c14.4,0,25.9,4.7,34.6,12.7c12.1,11.1,18,28.7,17.8,49.2h-72.8
		c2,13.6,9.5,22.1,22.7,22.1c8.5,0,14-3.8,16.8-10.1h31.4c-2.2,9.1-8.1,17.8-17,23.9c-8.5,5.9-18.8,9.3-31.6,9.3
		C463.4,131.5,442.8,108.4,442.8,77.7z M514.6,67.1c-1.2-12.1-8.7-19.8-19.2-19.8c-12.3,0-18.6,7.7-20.8,19.8H514.6z"/>
	<path class="st0" d="M543.5,27.3h32.8l11.1,41.9c2.2,8.1,4.5,19.6,4.5,19.6h0.4c0,0,2.4-11.7,4.5-20.2l10.7-41.3h27.3L646,68.6
		c2.2,8.7,4.7,20.4,4.7,20.4h0.4c0,0,2.6-11.7,4.7-19.8l11.3-41.9H699l-31,101.3h-30.3l-11.9-45.9c-2.2-7.9-4.4-18.2-4.4-18.2h-0.4
		c0,0-2.4,10.3-4.5,18.2l-12.1,45.9h-29.9L543.5,27.3z"/>
	<path class="st0" d="M695.3,100.3c0-22.3,17.8-29.1,38.8-31.8c19-2.4,25.7-4.4,25.7-11.3c0-6.5-4.2-10.9-13.8-10.9
		c-10.3,0-15.4,4.5-16.4,13.1h-29.7c0.8-18.8,15.2-34.8,45.9-34.8c15.2,0,25.5,2.8,32.8,8.3c8.7,6.3,12.9,16.2,12.9,28.9v51
		c0,8.1,0.8,12.7,3.6,14.4v1.4h-31.2c-1.6-2.2-2.6-6.1-3.4-11.3h-0.4c-5.9,8.5-14.8,13.8-30.1,13.8
		C709.7,131.1,695.3,120.3,695.3,100.3z M760.5,92.4V80.3c-4.2,2.2-10.1,3.8-16.6,5.3c-12.5,2.8-17.6,5.9-17.6,13.6
		c0,8.1,5.9,11.3,13.8,11.3C752.2,110.6,760.5,103.3,760.5,92.4z"/>
	<path class="st0" d="M805,27.3h30.9v15.8h0.6c7.1-12.1,15.4-17.4,27.7-17.4c3,0,4.9,0.2,6.3,0.8v27.7h-0.8
		c-19.8-2.8-32.4,6.9-32.4,28.9v45.5H805V27.3z"/>
	<path class="st0" d="M872,77.7c0-30.3,21.2-53.4,52-53.4c14.4,0,25.9,4.7,34.6,12.7c12.1,11.1,18,28.7,17.8,49.2h-72.8
		c2,13.6,9.5,22.1,22.7,22.1c8.5,0,14-3.8,16.8-10.1h31.4c-2.2,9.1-8.1,17.8-17,23.9c-8.5,5.9-18.8,9.3-31.6,9.3
		C892.6,131.5,872,108.4,872,77.7z M943.8,67.1c-1.2-12.1-8.7-19.8-19.2-19.8c-12.3,0-18.6,7.7-20.8,19.8H943.8z"/>
	<g>
		<path class="st0" d="M951.9,0.1H962v1.4h-4.3V13h-1.6V1.6h-4.3V0.1z"/>
		<path class="st0" d="M964.1,0.1h2.1l4.2,10.7h0l4.1-10.7h2.1V13h-1.5V2.4h0c0,0-0.3,1-0.6,1.6l-3.5,9h-1.2l-3.5-9
			c-0.3-0.6-0.6-1.6-0.6-1.6h0V13h-1.5V0.1z"/>
	</g>
</g>
</svg>
