<?xml version="1.0" encoding="utf-8"?>
<!-- Generator: Adobe Illustrator 16.0.0, SVG Export Plug-In . SVG Version: 6.00 Build 0)  -->
<!DOCTYPE svg PUBLIC "-//W3C//DTD SVG 1.1//EN" "http://www.w3.org/Graphics/SVG/1.1/DTD/svg11.dtd">
<svg version="1.1" id="Layer_1" xmlns="http://www.w3.org/2000/svg" xmlns:xlink="http://www.w3.org/1999/xlink" x="0px" y="0px"
	 width="662.205px" height="87.332px" viewBox="0 0 662.205 87.332" enable-background="new 0 0 662.205 87.332"
	 xml:space="preserve">
<g>
	<path fill="#FFFFFF" d="M484.806,18.255h17.593c12.229,0,17.696,7.271,17.696,16.476s-5.467,16.576-17.594,16.576H491.11v19.018
		h-6.305V18.255z M502.297,45.713c8.364,0,11.594-4.728,11.594-10.982s-3.229-10.883-11.695-10.883H491.11v21.865H502.297z"/>
	<path fill="#FFFFFF" d="M521.894,59.239c0-8.95,7.906-10.551,15.153-11.491c7.118-0.916,10.067-0.662,10.067-3.56v-0.204
		c0-5.008-2.721-7.932-8.236-7.932c-5.721,0-8.849,3.05-10.171,5.897l-5.695-2.033c3.052-7.119,9.763-9.152,15.662-9.152
		c4.983,0,14.44,1.423,14.44,13.83v25.729h-6v-5.288h-0.305c-1.221,2.543-4.779,6.203-11.594,6.203
		C527.792,71.239,521.894,66.866,521.894,59.239z M547.114,56.188v-5.492c-1.018,1.22-7.831,1.933-10.373,2.238
		c-4.678,0.609-8.848,2.033-8.848,6.609c0,4.17,3.457,6.306,8.238,6.306C543.251,65.85,547.114,61.07,547.114,56.188z"/>
	<path fill="#FFFFFF" d="M558.769,77.951l4.78-3.355c1.601,2.161,4.093,5.898,11.187,5.898c6.306,0,10.882-2.949,10.882-9.458
		v-7.933h-0.509c-1.322,2.136-3.762,6.61-11.391,6.61c-9.457,0-16.576-6.915-16.576-19.119c0-12,6.813-19.83,16.678-19.83
		c7.629,0,10.068,4.678,11.392,6.711h0.61v-6.203h5.796v40.17c0,10.068-7.525,14.34-16.882,14.34
		C566.015,85.782,561.21,82.045,558.769,77.951z M585.719,50.493c0-8.441-3.864-14.34-11.187-14.34
		c-7.628,0-11.391,6.407-11.391,14.34c0,8.136,3.864,13.831,11.391,13.831C581.753,64.324,585.719,59.138,585.719,50.493z"/>
	<path fill="#FFFFFF" d="M595.76,51.104c0-12.001,7.017-20.339,17.594-20.339c8.136,0,16.779,4.982,16.779,19.524v2.543h-28.347
		c0.278,8.364,5.135,12.916,12.178,12.916c4.703,0,8.237-2.034,9.763-6.103l5.797,1.627c-1.831,5.898-7.628,9.864-15.56,9.864
		C602.675,71.137,595.76,63.104,595.76,51.104z M624.032,47.646c0-6.61-4.17-11.492-10.679-11.492
		c-6.865,0-11.161,5.416-11.567,11.492H624.032z"/>
	<path fill="#FFFFFF" d="M656.103,41.544c-1.042-2.695-3.203-5.593-8.44-5.593c-4.779,0-8.339,2.44-8.339,5.796
		c0,3,2.085,4.551,6.712,5.695l5.797,1.424c6.966,1.703,10.373,5.135,10.373,10.577c0,6.737-6.179,11.693-15.255,11.693
		c-7.983,0-13.449-3.533-14.848-10.169l5.695-1.424c1.067,4.195,4.145,6.306,9.051,6.306c5.594,0,9.153-2.746,9.153-6.102
		c0-2.695-1.856-4.577-5.797-5.492l-6.509-1.525c-7.17-1.679-10.374-5.288-10.374-10.679c0-6.609,6.103-11.287,14.34-11.287
		c7.729,0,11.95,3.712,13.831,9.254L656.103,41.544z"/>
</g>
<g>
	<path fill="#FFFFFF" d="M111.02,17.931h11.073v21.61h22.479v-21.61h11.048v52.375h-11.047V48.671h-22.479v21.635H111.02V17.931z"/>
	<path fill="#FFFFFF" d="M186.123,31.025h10.896v39.28h-10.46v-7.135h-0.409c-1.765,4.604-6.01,7.646-11.917,7.646
		c-7.902,0-13.273-5.603-13.298-14.781V31.025h10.895v23.066c0.025,4.629,2.686,7.52,6.802,7.52c3.913,0,7.52-2.763,7.493-8.028
		L186.123,31.025L186.123,31.025z"/>
	<path fill="#FFFFFF" d="M224.813,42.84c-0.537-2.532-2.788-4.604-6.572-4.604c-3.376,0-6.036,1.533-6.01,3.888
		c-0.026,1.892,1.329,3.146,4.986,3.938l7.108,1.433c7.621,1.561,11.329,4.962,11.355,10.64
		c-0.026,7.749-7.314,12.939-17.493,12.939c-10.408,0-16.802-4.629-17.825-12.147l10.715-0.563c0.665,3.196,3.248,4.858,7.136,4.858
		c3.811,0,6.343-1.662,6.394-3.988c-0.051-1.971-1.61-3.224-5.038-3.913l-6.802-1.354c-7.673-1.534-11.381-5.346-11.355-11.228
		c-0.025-7.569,6.599-12.226,16.648-12.226c9.923,0,15.754,4.477,16.726,11.713L224.813,42.84z"/>
	<path fill="#FFFFFF" d="M259.846,39.209h-7.392v19.026c0,3.019,1.509,3.836,3.684,3.836c1.021,0,2.174-0.256,2.711-0.357
		l1.713,8.105c-1.101,0.357-3.094,0.921-5.907,1.022c-7.902,0.332-13.145-3.479-13.094-11.176V39.209h-5.37v-8.184h5.37v-9.411
		h10.895v9.411h7.392L259.846,39.209L259.846,39.209z"/>
	<path fill="#FFFFFF" d="M275.035,70.306h-10.895V17.931h10.895V70.306z"/>
	<path fill="#FFFFFF" d="M278.54,50.845c0-12.122,7.493-20.332,19.054-20.332c10.383,0,18.463,6.599,18.463,19.948v2.991h-26.75
		v0.024c0,5.857,3.451,9.464,8.898,9.464c3.632,0,6.444-1.562,7.545-4.554l10.076,0.666c-1.535,7.288-8.082,12.021-17.8,12.021
		C285.931,71.074,278.54,63.299,278.54,50.845z M305.802,46.702c-0.025-4.68-3.3-8.056-8.03-8.056c-4.833,0-8.234,3.579-8.465,8.056
		H305.802z"/>
	<path fill="#FFFFFF" d="M316.31,31.025h11.021l6.087,26.394h0.357l6.344-26.394h10.816l6.443,26.237h0.333l5.984-26.237h10.996
		l-10.663,39.28h-11.533l-6.752-24.704h-0.484l-6.753,24.704h-11.508L316.31,31.025z"/>
	<path fill="#FFFFFF" d="M375.02,59.336c0-8.771,6.98-11.381,14.756-12.098c6.828-0.665,9.514-0.998,9.514-3.528v-0.153
		c0-3.223-2.122-5.089-5.83-5.089c-3.913,0-6.239,1.918-6.981,4.526l-10.074-0.817c1.509-7.161,7.697-11.662,17.107-11.662
		c8.745,0,16.674,3.938,16.674,13.3v26.493h-10.332v-5.446h-0.308c-1.918,3.656-5.677,6.188-11.481,6.188
		C380.568,71.049,375.02,67.109,375.02,59.336z M399.366,56.266v-4.169c-1.306,0.87-5.191,1.434-7.57,1.767
		c-3.836,0.537-6.365,2.045-6.365,5.113c0,2.992,2.401,4.553,5.754,4.553C395.964,63.529,399.366,60.383,399.366,56.266z"/>
	<path fill="#FFFFFF" d="M415.04,31.025h10.563v6.854h0.41c1.432-4.859,5.036-7.416,9.438-7.416c1.101,0,2.455,0.152,3.428,0.383
		v9.667c-1.022-0.333-3.096-0.588-4.604-0.588c-4.808,0-8.336,3.325-8.336,8.158v22.224h-10.896L415.04,31.025L415.04,31.025z"/>
	<path fill="#FFFFFF" d="M437.443,50.845c0-12.122,7.492-20.332,19.053-20.332c10.383,0,18.465,6.599,18.465,19.948v2.991h-26.75
		v0.024c0,5.857,3.451,9.464,8.898,9.464c3.631,0,6.445-1.562,7.545-4.554l10.076,0.666c-1.535,7.288-8.082,12.021-17.801,12.021
		C444.834,71.074,437.443,63.299,437.443,50.845z M464.705,46.702c-0.024-4.68-3.299-8.056-8.028-8.056
		c-4.834,0-8.234,3.579-8.466,8.056H464.705z"/>
</g>
<g>
	<rect fill="#C03A2B" width="87.332" height="87.332"/>
	<polygon fill="#FFFFFF" points="69.866,52.399 52.399,34.933 69.866,34.933 	"/>
	<polygon fill="#FFFFFF" points="34.933,17.467 34.933,34.933 17.467,34.933 17.467,52.399 34.933,52.399 34.933,69.866 
		52.399,69.866 52.399,17.467 	"/>
</g>
</svg>
